HIERARCHY
ROOT Hips
{
	OFFSET	0.00	0.00	0.00
	CHANNELS 6 Xposition Yposition Zposition Zrotation Xrotation Yrotation
	JOINT LeftUpperLeg
	{
		OFFSET	 0.100000	-0.066564	-0.000554
		CHANNELS 3 Zrotation Xrotation Yrotation
		JOINT LeftLowerLeg
		{
			OFFSET	 0.002447	-0.463436	-0.005172
			CHANNELS 3 Zrotation Xrotation Yrotation
			JOINT LeftFoot
			{
				OFFSET	-0.002447	-0.420480	-0.020576
				CHANNELS 3 Zrotation Xrotation Yrotation
				JOINT LeftToes
				{
					OFFSET	 0.003734	-0.104922	 0.126407
					CHANNELS 3 Zrotation Xrotation Yrotation
					End Site
					{
						OFFSET	 0.000000	 0.000000	 0.059955
					}
				}
			}
		}
	}
	JOINT RightUpperLeg
	{
		OFFSET	-0.100000	-0.066564	-0.000554
		CHANNELS 3 Zrotation Xrotation Yrotation
		JOINT RightLowerLeg
		{
			OFFSET	-0.002447	-0.463436	-0.005146
			CHANNELS 3 Zrotation Xrotation Yrotation
			JOINT RightFoot
			{
				OFFSET	 0.002447	-0.420479	-0.020602
				CHANNELS 3 Zrotation Xrotation Yrotation
				JOINT RightToes
				{
					OFFSET	-0.003734	-0.104922	 0.126407
					CHANNELS 3 Zrotation Xrotation Yrotation
					End Site
					{
						OFFSET	-0.000000	 0.000000	 0.059955
					}
				}
			}
		}
	}
	JOINT Spine
	{
		OFFSET	 0.000000	 0.099235	-0.012273
		CHANNELS 3 Zrotation Xrotation Yrotation
		JOINT Chest
		{
			OFFSET	-0.000001	 0.116455	-0.014223
			CHANNELS 3 Zrotation Xrotation Yrotation
			JOINT UpperChest
			{
				OFFSET	 0.000001	 0.133602	-0.016265
				CHANNELS 3 Zrotation Xrotation Yrotation
				JOINT LeftShoulder
				{
					OFFSET	 0.061058	 0.091105	 0.007056
					CHANNELS 3 Zrotation Xrotation Yrotation
					JOINT LeftUpperArm
					{
						OFFSET	 0.133942	-0.002659	-0.026009
						CHANNELS 3 Zrotation Xrotation Yrotation
						JOINT LeftLowerArm
						{
							OFFSET	 0.274047	 0.000000	 0.000000
							CHANNELS 3 Zrotation Xrotation Yrotation
							JOINT LeftHand
							{
								OFFSET	 0.276145	 0.000000	 0.000000
								CHANNELS 3 Zrotation Xrotation Yrotation
								End Site
								{
									OFFSET	 0.165687	 0.000000	 0.000000
								}
							}
						}
					}
				}
				JOINT Neck
				{
					OFFSET	 0.000000	 0.150325	 0.007929
					CHANNELS 3 Zrotation Xrotation Yrotation
					JOINT Head
					{
						OFFSET	 0.000000	 0.103218	 0.031424
						CHANNELS 3 Zrotation Xrotation Yrotation
						End Site
						{
							OFFSET	 0.000000	 0.061931	 0.018855
						}
					}
				}
				JOINT RightShoulder
				{
					OFFSET	-0.061057	 0.091105	 0.007056
					CHANNELS 3 Zrotation Xrotation Yrotation
					JOINT RightUpperArm
					{
						OFFSET	-0.133943	-0.002660	-0.026009
						CHANNELS 3 Zrotation Xrotation Yrotation
						JOINT RightLowerArm
						{
							OFFSET	-0.274047	 0.000000	 0.000000
							CHANNELS 3 Zrotation Xrotation Yrotation
							JOINT RightHand
							{
								OFFSET	-0.276145	 0.000000	 0.000000
								CHANNELS 3 Zrotation Xrotation Yrotation
								End Site
								{
									OFFSET	-0.165687	 0.000000	 0.000000
								}
							}
						}
					}
				}
			}
		}
	}
}
MOTION
Frames:    7
Frame Time: 0.03333334
-0.427610	 1.025290	-0.124710	-0.325184	 2.881072	 3.262901	 18.429390	-7.582788	 21.818270	 0.067326	 25.322420	-0.023637	-5.399525	-7.775170	 1.177445	-0.000580	-0.868138	 0.686773	-4.184081	-14.469670	-14.657260	 0.041966	 32.183750	-0.011602	 1.101165	-18.731390	-13.441780	 0.000191	-0.368268	-0.000082	 2.476326	 3.822152	-1.188903	-0.000000	 0.000000	 0.000000	 5.059705	 7.605364	-2.557642	-4.906248	-0.758944	 6.340914	-80.636330	-8.753675	-15.485660	-11.038840	 3.736025	-16.199080	 47.896850	 43.203430	-24.713370	 9.802301	-5.590369	-35.815490	 9.587149	-5.709746	-36.031260	 1.598221	-6.017891	-1.144533	 77.863450	 5.095528	 25.404740	 11.031500	 4.245450	 28.161450	-24.357210	 2.654274	-16.682940
-0.427440	 1.023930	-0.137750	 0.081251	 2.955359	 3.784818	 17.655740	-7.750806	 18.513390	-0.199421	 23.421170	 0.032016	-8.431346	-7.984656	 1.231720	-0.000843	-0.576513	 0.495321	-4.357709	-15.931170	-12.751150	 0.248884	 33.244150	-0.074148	 0.278094	-18.514090	-15.780840	 0.000392	-0.317383	-0.000545	 2.487586	 3.853960	-1.243678	-0.000000	 0.000000	 0.000000	 5.089417	 7.667590	-2.669596	-5.601358	-0.747084	 6.584466	-80.661130	-8.531840	-15.052430	-9.997803	 3.690749	-16.694690	 47.164780	 44.580850	-23.439710	 9.267091	-5.954411	-36.309510	 9.253303	-5.999947	-36.191920	 0.792724	-5.817203	-0.977255	 77.417410	 5.768750	 27.236690	 11.195140	 5.530234	 31.417220	-28.804350	-0.049097	-10.834130
-0.428860	 1.023360	-0.145620	 0.112377	 2.982133	 4.053565	 17.534900	-8.479209	 18.904680	 0.142889	 22.675920	-0.038062	-8.958145	-7.645403	 0.541930	-0.000815	 0.024304	 0.417387	-4.234822	-16.732280	-12.511190	 0.039336	 33.741430	-0.012245	 0.097523	-18.255250	-16.288700	 0.000379	-0.268431	 0.000262	 2.533751	 3.895361	-1.303073	-0.000000	 0.000000	 0.000000	 5.185800	 7.745996	-2.792487	-5.382908	-0.810950	 6.593473	-80.996160	-9.016939	-15.164610	-9.885493	 3.187542	-15.871110	 46.604210	 45.197010	-22.416390	 9.049597	-5.983228	-36.433450	 8.969153	-6.048843	-36.311500	 0.300600	-5.687425	-0.791063	 77.851200	 5.830435	 28.277200	 11.457370	 6.803473	 35.036320	-33.385940	-5.239821	-4.426652
-0.432220	 1.022920	-0.152720	-0.299576	 3.174436	 4.515801	 17.932000	-10.426630	 17.786720	-0.088363	 22.575400	 0.007449	-10.944890	-7.334933	 1.833590	 0.000081	 0.390793	 0.665871	-3.741080	-17.475350	-12.633490	 0.129185	 33.920760	-0.038988	-0.449791	-17.897830	-16.768570	 0.000254	-0.090271	-0.000022	 2.656577	 3.833292	-1.455493	-0.000000	 0.000000	 0.000000	 5.439952	 7.610751	-3.107393	-5.612748	-0.929820	 6.467345	-81.008050	-9.373997	-15.794210	-8.877638	 2.964327	-14.988840	 45.186180	 46.180250	-20.750600	 9.286160	-6.221111	-36.547980	 9.056476	-6.056800	-36.287160	-0.210179	-5.774684	-0.784768	 79.140740	 5.608912	 28.929300	 11.234340	 8.614842	 41.125540	-38.014410	-10.837860	 5.760005
-0.435020	 1.022710	-0.155100	-0.594848	 3.269210	 4.879159	 18.229110	-12.101950	 17.522930	 0.212840	 22.835280	-0.050966	-11.673460	-7.815436	 0.440365	 0.000418	 0.373186	 0.513072	-3.515686	-17.685580	-13.818740	-0.116099	 33.927150	 0.034912	-0.509689	-17.804960	-16.070850	-0.000163	-0.034024	 0.000596	 2.610930	 3.753032	-1.554389	-0.000000	 0.000000	 0.000000	 5.354981	 7.444624	-3.296364	-5.971078	-1.015314	 6.414969	-80.594280	-9.242542	-16.825750	-8.477966	 2.182265	-13.983980	 43.193980	 46.839620	-18.346080	 9.117307	-6.025840	-36.478970	 9.208804	-5.826604	-36.307240	-0.780409	-5.913680	-0.765791	 79.587180	 5.572455	 28.883130	 10.073970	 10.366640	 46.347250	-40.271800	-12.873120	 11.165330
-0.436690	 1.022690	-0.154940	-0.798946	 3.181799	 5.007122	 18.298000	-13.405000	 15.115010	 0.043886	 23.033930	-0.016695	-12.115430	-8.811088	 1.174781	 0.000574	 0.430286	-0.000063	-3.299611	-17.570410	-14.199940	-0.022338	 33.885210	 0.006310	-1.007805	-17.681540	-16.070380	 0.000522	-0.013997	 0.000781	 2.631509	 3.718542	-1.703914	-0.000000	 0.000000	 0.000000	 5.405164	 7.371316	-3.596146	-6.292487	-0.965636	 6.362525	-80.379260	-9.101756	-17.648480	-8.058722	 1.455103	-13.674000	 40.833250	 47.569150	-15.886930	 9.415801	-5.874009	-36.492340	 9.390121	-5.757358	-36.212300	-0.610641	-5.621747	-1.257303	 79.224790	 5.717407	 29.155810	 9.503232	 11.364350	 51.813230	-41.111440	-14.110550	 13.943040
-0.436690	 1.022690	-0.154940	-0.798946	 3.181799	 5.007122	 18.298000	-13.405000	 15.115010	 0.043886	 23.033930	-0.016695	-12.115430	-8.811088	 1.174781	 0.000574	 0.430286	-0.000063	-3.299611	-17.570410	-14.199940	-0.022338	 33.885210	 0.006310	-1.007805	-17.681540	-16.070380	 0.000522	-0.013997	 0.000781	 2.631509	 3.718542	-1.703914	-0.000000	 0.000000	 0.000000	 5.405164	 7.371316	-3.596146	-6.292487	-0.965636	 6.362525	-80.379260	-9.101756	-17.648480	-8.058722	 1.455103	-13.674000	 40.833250	 47.569150	-15.886930	 9.415801	-5.874009	-36.492340	 9.390121	-5.757358	-36.212300	-0.610641	-5.621747	-1.257303	 79.224790	 5.717407	 29.155810	 9.503232	 11.364350	 51.813230	-41.111440	-14.110550	 13.943040
